<?xml version="1.0" encoding="utf-8"?>
<!-- Generator: Adobe Illustrator 22.0.0, SVG Export Plug-In . SVG Version: 6.00 Build 0)  -->
<svg version="1.2" baseProfile="tiny" id="图层_1"
	 xmlns="http://www.w3.org/2000/svg" xmlns:xlink="http://www.w3.org/1999/xlink" x="0px" y="0px" viewBox="0 0 1756 576"
	 xml:space="preserve">
<g>
	<path fill="#FBB03B" d="M360.1,318v131.7l130.2-92l-93.2-65.9L360.1,318z M360.1,318"/>
	<path fill="#FBB03B" d="M490.3,219l-130.2-92v131.7l37,26.1L490.3,219z M490.3,219"/>
	<path fill="#FBB03B" d="M402,288.4l90.3,63.8V224.5L402,288.4z M402,288.4"/>
	<path fill="#FBB03B" d="M224.1,219l93.2,65.9l37-26.1V127L224.1,219z M224.1,219"/>
	<path fill="#FBB03B" d="M354.3,318l-37-26.2l-93.2,65.9l130.2,92V318z M354.3,318"/>
	<path fill="#FBB03B" d="M290.2,288.4L192,357.7V219L290.2,288.4z M290.2,288.4"/>
	<path fill="#FBB03B" d="M392.1,288.4l-34.9-24.7l-34.9,24.7l34.9,24.7L392.1,288.4z M392.1,288.4"/>
</g>
<g>
	<path fill="#FBB03B" d="M715.7,258.9c5.2-1,9.3-0.2,12.3,2.5c3,2.7,0,4.6-8.9,5.6c-9,1-21.8,3.2-38.5,6.6c6,5.4,8.5,9.1,7.6,11.2
		c-1,2-1.1,5.1-0.3,9.1c5.5-0.7,11.3-1.9,17.3-3.6c6-1.7,10.6-1,13.9,2c3.3,3,0.6,5.1-8,6.1c-8.6,1-17.1,2.5-25.5,4.6l-2,14.2
		c10.9-0.7,18.4,1.4,22.5,6.1c4.1,4.7,4.8,9,2.3,12.7c-2.6,3.7-6.2,3-10.9-2c-4.7-5.1-9.5-9.6-14.3-13.7l-3.7,26.4
		c-1.1,8.1-2.1,13.7-2.9,16.8c-0.8,3-2.8,6.8-6.1,11.2c-3.3,4.4-5.9,4.4-7.6,0c-1.8-4.4-5.5-9-11.3-13.7c-5.8-4.7-6.2-6.8-1.2-6.1
		c5,0.7,8.6,0.5,10.7-0.5c2.2-1,4.2-5.6,6-13.7c1.8-8.1,3.8-20,6-35.5c-17.4,3.4-28.4,5.8-33,7.1c-4.6,1.4-9.5,0-14.7-4.1
		c-5.2-4.1-3.6-5.9,4.8-5.6c8.4,0.3,23.1-1.5,43.9-5.6c0.2-6.1-0.2-10.7-1.1-13.7c-0.9-3-2.3-5.6-4-7.6c-21.7,4.7-35.3,8.1-41,10.2
		c-5.7,2-10.3,1.4-13.9-2c-3.6-3.4-5.3-5.7-5.1-7.1c0.2-1.3,2.6-2,7.4-2c5.4,0,14.2-0.8,26.3-2.5c12.1-1.7,26.5-4.2,43.2-7.6
		c9.3-13.5,14.5-23.7,15.5-30.5c1-6.8,4.3-8,10.1-3.6c5.8,4.4,6.6,8.3,2.4,11.7c-4.2,3.4-9.7,9.8-16.4,19.3
		C704.4,260.8,710.5,259.9,715.7,258.9z M636.8,317.8c2.3-1.7,3.2,1.2,2.8,8.6c-0.4,7.5-3.3,16.3-8.8,26.4s-9.7,12-12.5,5.6
		c-2.8-6.4-2.4-11.8,1.3-16.3c3.7-4.4,6.8-9,9.5-13.7C632,323.1,634.6,319.5,636.8,317.8z M712.3,211.2c4.6-1.7,9.5-1.7,14.7,0
		c5.2,1.7,7.3,3.6,6.3,5.6c-1,2-8.1,4.4-21.3,7.1c-13.3,2.7-24.6,5.1-34,7.1s-17.3,1.7-23.7-1c-6.4-2.7-4.9-4.6,4.3-5.6
		s19.2-2.9,29.7-5.6C699.6,215.4,707.6,212.9,712.3,211.2z M660.2,241.7c0.3-4.4,3.4-3.6,9.3,2.5c5.9,6.1,7.3,11.7,4.2,16.8
		c-3.1,5.1-6.2,4.2-9.3-2.5C661.4,251.7,660,246.1,660.2,241.7z M686.9,181.7c-2-3,3.1-3.2,15.3-0.5c12.1,2.7,16.6,8.3,13.4,16.8
		c-3.2,8.5-8.3,8.6-15.3,0.5S688.9,184.8,686.9,181.7z M804.1,258.9c13.7-3.7,23.5-3.4,29.3,1c5.8,4.4,4.4,7-4.1,7.6
		c-8.6,0.7-23.2,2.4-43.9,5.1c3.7,2.7,6.6,5.8,8.9,9.1c-2.1,10.2-4.9,27.8-8.4,52.8c-4.3,30.5-8.9,51.4-13.9,63
		c-5,11.5-7.1,10.7-6.2-2.5s2.3-27.2,4.4-42.1l5.7-40.6c2.6-18.3,2.6-30.8,0.2-37.6c-8.4,2-16.2,2-23.4,0
		c-1.5,10.8-3.6,20.7-6.2,29.5c-2.6,8.8-5.5,17.4-8.7,25.9c-3.2,8.5-8.1,16.9-14.7,25.4c-6.6,8.5-13.6,14.6-20.9,18.3
		c-7.3,3.7-8.3,2.5-3.1-3.6c5.3-6.1,10.5-13,15.6-20.8c5.2-7.8,9.5-17.3,13.1-28.4s6.8-23.2,9.6-36.1c2.8-12.9,4.5-23.7,5.1-32.5
		c0.6-8.8,0.2-14.7-1.1-17.8c-1.3-3-1.3-5.1-0.2-6.1c1.2-1,5-0.8,11.6,0.5c8.1-4.7,16.5-10.2,25.1-16.3c8.6-6.1,13.8-11.2,15.3-15.2
		c1.6-4.1,4.9-4.9,10-2.5c5.1,2.4,9.4,5.4,12.9,9.1c3.5,3.7,0.6,6.6-8.8,8.6s-25,8.1-46.7,18.3c-1.7,7.5-4.2,20.3-7.5,38.6
		C773.4,266.2,790.3,262.7,804.1,258.9z"/>
	<path fill="#FBB03B" d="M975.8,230.6c7.8,4.4,12.1,9.3,12.7,14.7c0.6,5.4-0.6,9.1-3.6,11.2c-3,2-8.6-0.5-16.7-7.6
		c-8.1-7.1-15.9-15.7-23.3-25.9c-15.2,21.7-29.3,38.6-42.2,50.8s-24.8,21.3-35.8,27.4c-11,6.1-10.7,4.1,0.9-6.1s22.9-21.8,33.9-35
		s20.1-26.4,27.4-39.6c7.3-13.2,11-22.9,11.2-28.9c0.2-6.1,2.7-8.1,7.5-6.1s8.8,4.9,12,8.6c3.2,3.7,3.7,6.4,1.4,8.1
		c-2.3,1.7-6.7,7-13.4,15.7C958.6,221.9,968,226.2,975.8,230.6z M906,347.9c-0.5,8.1,1.5,13.2,6,15.2c4.4,2,10.7,3,18.9,3
		c8.8,0,16.2-0.7,22.1-2c5.9-1.3,10.1-4.7,12.6-10.2c2.4-5.4,4.9-11,7.4-16.8c2.5-5.7,3.1-3.2,2,7.6c-1.2,10.8-1.1,18.5,0.3,22.9
		c1.4,4.4-1.8,7.8-9.6,10.2c-7.8,2.4-18.8,3.4-32.9,3c-14.2-0.3-23.8-1.9-28.8-4.6c-5-2.7-8-7.8-9-15.2c-1-7.4,0.2-20.8,3.6-40.1
		c3.4-19.3,3.9-31.6,1.7-37.1c-2.3-5.4-1.1-7.8,3.5-7.1c4.6,0.7,9.2,1.7,13.8,3c13-1.3,21.7-3.6,25.8-6.6c4.1-3,8.6-3.6,13.4-1.5
		s8.7,4.4,11.7,7.1c3,2.7,2.7,5.8-0.8,9.1c-3.5,3.4-6.4,9.6-8.7,18.8c-2.3,9.1-4.6,16.1-7,20.8c-2.4,4.7-5.6,8.6-9.8,11.7
		c-4.2,3-6.6,2-7.2-3c-0.7-5.1-3.2-10-7.6-14.7c-4.4-4.7-4.3-6.6,0.3-5.6c4.6,1,8.1,1.4,10.5,1c2.4-0.3,4.4-2.4,5.9-6.1
		c1.5-3.7,2.8-9,3.7-15.7c1-6.8,0.3-10.5-2-11.2c-2.3-0.7-5.8-0.7-10.7,0c-4.8,0.7-11.8,1.7-20.7,3
		C909.3,319.4,906.5,339.7,906,347.9z M1029.4,242.8c-2.5,3-4.8,14.9-7,35.5c-2.2,20.7-5.1,35.4-8.7,44.2c-3.6,8.8-6.6,10.7-8.9,5.6
		s-3.6-9.6-3.7-13.7c-0.1-4.1,1-9.8,3.4-17.3c2.4-7.4,4.2-18.1,5.5-32c1.3-13.9,0.8-23.7-1.4-29.5c-2.2-5.7,2.1-6.6,13.1-2.5
		C1029.3,236.5,1031.9,239.7,1029.4,242.8z M1077.2,199.6c-3.3,4.1-6.4,17.8-9.3,41.1c-2.9,23.4-5.4,43.3-7.4,59.9
		c-2,16.6-3.5,31.2-4.6,43.7c-1.1,12.5-3,22.3-5.7,29.5c-2.7,7.1-7.3,13.4-13.8,18.8c-6.5,5.4-10.3,4.6-11.3-2.5
		s-5.2-14.7-12.5-22.9c-7.3-8.1-6.8-10.5,1.5-7.1c8.3,3.4,14.2,4.6,17.8,3.6c3.5-1,6.5-7.4,8.8-19.3c2.3-11.8,6-38.1,11.1-78.7
		c5-40.6,5.6-65.3,1.8-74.1c-3.8-8.8-2.2-12.3,5.1-10.7c7.2,1.7,12.9,4.2,17.2,7.6C1079.9,191.8,1080.4,195.5,1077.2,199.6z"/>
	<path fill="#FBB03B" d="M1269,381.3h-103.6l24.4-173.7h98.5l-2.7,19.3h-75.2l-7.6,53.8h69.1l-2.7,19.3h-69.1l-8.7,62h80.2
		L1269,381.3z"/>
	<path fill="#FBB03B" d="M1415.1,381.3h-24.4l-26-75.2h-26.4l-10.6,75.2h-23.4l24.4-173.7h50.8c16.3,0,28.9,3.9,38,11.7
		c9.1,7.8,12.4,20.5,9.9,38.1c-1.9,13.6-6.8,24-14.6,31.5c-7.8,7.5-16.3,12.2-25.4,14.2L1415.1,381.3z M1404.1,257.4
		c1.3-9.5-0.5-16.9-5.5-22.3c-5-5.4-13.9-8.1-26.8-8.1h-22.3l-8.4,59.9h28.4c8.1,0,15.5-2.2,22.3-6.6
		C1398.5,275.8,1402.6,268.2,1404.1,257.4z"/>
	<path fill="#FBB03B" d="M1560.2,381.3h-24.4l-6.7-53.8h-44.7l-21.8,53.8h-24.4l75.5-175.7h20.3L1560.2,381.3z M1526.8,308.2
		l-7.5-62h-2l-25,62H1526.8z"/>
</g>
<g>
	<path fill="#FBB03B" d="M1095.9,293.5c-1.7,12.4,6.9,22.4,19.3,22.4c12.4,0,23.9-10,25.6-22.4c1.7-12.4-6.9-22.4-19.3-22.4
		C1109.1,271,1097.6,281.1,1095.9,293.5L1095.9,293.5z M1095.9,293.5"/>
</g>
</svg>
